<svg width="100" height="100" viewBox="0 0 100 100" fill="none" xmlns="http://www.w3.org/2000/svg">
<g clip-path="url(#clip0_74_60)">
<path d="M93.1572 19.8475L93.1573 19.8474C93.7927 19.466 94.518 19.2601 95.259 19.2506C96 19.2411 96.7303 19.4285 97.3752 19.7935C98.0201 20.1586 98.5567 20.6883 98.93 21.3285C99.3032 21.9686 99.5 22.6964 99.5 23.4375V76.5625C99.5 77.3036 99.3032 78.0314 98.93 78.6715C98.5567 79.3117 98.0201 79.8414 97.3752 80.2065C96.7303 80.5715 96 80.7589 95.259 80.7494C94.518 80.7399 93.7927 80.534 93.1573 80.1526L93.1572 80.1525L69.0072 65.665L68.25 65.2107V66.0938V70.3125C68.25 73.0807 67.1503 75.7355 65.1929 77.6929C63.2355 79.6503 60.5807 80.75 57.8125 80.75H10.9375C5.17614 80.75 0.5 76.0739 0.5 70.3125V29.6875C0.5 26.9193 1.59966 24.2645 3.55707 22.3071C5.51448 20.3497 8.1693 19.25 10.9375 19.25H57.8125C60.5807 19.25 63.2355 20.3497 65.1929 22.3071C67.1503 24.2645 68.25 26.9193 68.25 29.6875V33.9063V34.7893L69.0072 34.335L93.1572 19.8475ZM68.25 55.1562V55.4393L68.4928 55.585L90.3678 68.71L91.125 69.1643V68.2812V31.7187V30.8357L90.3678 31.29L68.4928 44.415L68.25 44.5607V44.8438V55.1562ZM59.875 42.1875V29.6875C59.875 29.1405 59.6577 28.6159 59.2709 28.2291C58.8841 27.8423 58.3595 27.625 57.8125 27.625H10.9375C10.3905 27.625 9.86589 27.8423 9.47909 28.2291C9.0923 28.6159 8.875 29.1405 8.875 29.6875V70.3125C8.875 71.4511 9.79886 72.375 10.9375 72.375H57.8125C58.3595 72.375 58.8841 72.1577 59.2709 71.7709C59.6577 71.3841 59.875 70.8595 59.875 70.3125V42.1875Z" stroke="#AEAEAE"/>
</g>
<defs>
<clipPath id="clip0_74_60">
<rect width="100" height="100" fill="white"/>
</clipPath>
</defs>
</svg>
