<svg width="79" height="100" viewBox="0 0 79 100" fill="none" xmlns="http://www.w3.org/2000/svg">
<g clip-path="url(#clip0_74_46)">
<path d="M74.8959 96.7709L74.5424 96.4174L74.8959 96.7709C75.2827 96.3841 75.5 95.8595 75.5 95.3125V4.6875C75.5 4.14049 75.2827 3.61589 74.8959 3.22909C74.5091 2.8423 73.9845 2.625 73.4375 2.625H4.6875C4.14049 2.625 3.61589 2.8423 3.22909 3.22909C2.8423 3.61589 2.625 4.14049 2.625 4.6875V95.3125C2.625 95.8595 2.8423 96.3841 3.22909 96.7709C3.61589 97.1577 4.14049 97.375 4.6875 97.375H73.4375C73.9845 97.375 74.5091 97.1577 74.8959 96.7709ZM73.4375 99.5H4.6875C2.37927 99.5 0.5 97.6207 0.5 95.3125V4.6875C0.5 2.37927 2.37927 0.5 4.6875 0.5H73.4375C75.7457 0.5 77.625 2.37927 77.625 4.6875V95.3125C77.625 97.6207 75.7457 99.5 73.4375 99.5Z" stroke="#AEAEAE"/>
<path d="M12.5 12H12V12.5V81.25V81.75H12.5H65.625H66.125V81.25V12.5V12H65.625H12.5ZM67.1875 83.875H10.9375C10.6557 83.875 10.3855 83.7631 10.1862 83.5638C9.98694 83.3645 9.875 83.0943 9.875 82.8125V10.9375C9.875 10.6557 9.98694 10.3855 10.1862 10.1862C10.3855 9.98694 10.6557 9.875 10.9375 9.875H67.1875C67.4693 9.875 67.7395 9.98694 67.9388 10.1862C68.1381 10.3855 68.25 10.6557 68.25 10.9375V82.8125C68.25 83.0943 68.1381 83.3645 67.9388 83.5638C67.7395 83.7631 67.4693 83.875 67.1875 83.875Z" stroke="#AEAEAE"/>
<path d="M43.25 90.625C43.25 92.0747 42.0747 93.25 40.625 93.25C39.1753 93.25 38 92.0747 38 90.625C38 89.1753 39.1753 88 40.625 88C42.0747 88 43.25 89.1753 43.25 90.625Z" stroke="#AEAEAE"/>
</g>
<defs>
<clipPath id="clip0_74_46">
<rect width="78.125" height="100" fill="white"/>
</clipPath>
</defs>
</svg>
