<svg width="100" height="100" viewBox="0 0 100 100" fill="none" xmlns="http://www.w3.org/2000/svg">
<path d="M58.8333 25V24.5H58.3333H16.6667H16.1667V25V75V75.5H16.6667H58.3333H58.8333V75V25ZM79.6667 29.1667V28.6667H79.1667H70.8333H70.3333V29.1667V37.5V38H70.8333H79.1667H79.6667V37.5V29.1667ZM29.6716 42.2229C29.1324 42.6214 28.6532 43.0757 28.2984 43.469L23.07 38.2772C24.6925 36.5764 27.9896 33.8334 32.2917 33.8334C35.4577 33.8334 37.802 35.3717 39.5544 36.54C40.1987 36.9764 40.7534 37.3366 41.2483 37.5868C41.7445 37.8377 42.2218 38 42.7083 38C43.6433 38 44.5852 37.4931 45.3284 36.9438C45.867 36.5457 46.3457 36.0921 46.7003 35.6991L51.8895 40.8882C50.267 42.5896 46.972 45.3333 42.7083 45.3333C39.582 45.3333 37.278 43.8344 35.5273 42.6673C34.8452 42.2126 34.2789 41.8412 33.7796 41.5861C33.275 41.3281 32.798 41.1667 32.2917 41.1667C31.3567 41.1667 30.4148 41.6736 29.6716 42.2229ZM35.5273 63.5007C34.8452 63.0459 34.2789 62.6745 33.7796 62.4194C33.275 62.1614 32.798 62 32.2917 62C31.3568 62 30.415 62.5069 29.6677 63.0552C29.1187 63.4581 28.6302 63.9166 28.266 64.3089L23.0689 59.1118C24.6909 57.411 27.9886 54.6667 32.2917 54.6667C35.4578 54.6667 37.8022 56.2052 39.5546 57.3734C40.1988 57.8098 40.7534 58.1699 41.2483 58.4202C41.7445 58.6711 42.2218 58.8333 42.7083 58.8333C43.6235 58.8333 44.566 58.3251 45.3114 57.7781C45.8537 57.3802 46.34 56.9257 46.6992 56.5313L51.8897 61.7218C50.2712 63.4239 47.0102 66.1667 42.7083 66.1667C39.582 66.1667 37.278 64.6677 35.5273 63.5007ZM91.1667 25V75C91.1667 79.3072 87.6405 82.8333 83.3333 82.8333H16.6667C12.3595 82.8333 8.83333 79.3072 8.83333 75V25C8.83333 20.6928 12.3595 17.1667 16.6667 17.1667H83.3333C87.6405 17.1667 91.1667 20.6928 91.1667 25ZM79.6667 66.6667C79.6667 64.0989 77.5678 62 75 62C72.4322 62 70.3333 64.0989 70.3333 66.6667C70.3333 69.2345 72.4322 71.3333 75 71.3333C77.5678 71.3333 79.6667 69.2345 79.6667 66.6667ZM79.6667 50C79.6667 47.4322 77.5678 45.3333 75 45.3333C72.4322 45.3333 70.3333 47.4322 70.3333 50C70.3333 52.5678 72.4322 54.6667 75 54.6667C77.5678 54.6667 79.6667 52.5678 79.6667 50Z" stroke="#AEAEAE"/>
</svg>
