<svg width="100" height="100" viewBox="0 0 100 100" fill="none" xmlns="http://www.w3.org/2000/svg">
<path d="M30.5556 16.1667H30.0556V16.6667V66.6667V67.1667H30.5556H69.4444H69.9444V66.6667V16.6667V16.1667H69.4444H30.5556ZM30.0556 83.3333V83.8333H30.5556H69.4444H69.9444V83.3333V72.2222V71.7222H69.4444H30.5556H30.0556V72.2222V83.3333ZM30.5556 11.6111H69.4444C70.7853 11.6111 72.0712 12.1438 73.0193 13.0919C73.9674 14.04 74.5 15.3259 74.5 16.6667V83.3333C74.5 84.6741 73.9674 85.96 73.0193 86.9081C72.0712 87.8562 70.7853 88.3889 69.4444 88.3889H30.5556C29.2147 88.3889 27.9288 87.8562 26.9807 86.9081C26.0326 85.96 25.5 84.6741 25.5 83.3333V16.6667C25.5 15.3259 26.0326 14.04 26.9807 13.0919C27.9288 12.1438 29.2147 11.6111 30.5556 11.6111Z" stroke="#AEAEAE"/>
<path d="M47.7222 75.5H52.2778V80.0556H47.7222V75.5Z" stroke="#AEAEAE"/>
</svg>
