<svg width="100" height="100" viewBox="0 0 100 100" fill="none" xmlns="http://www.w3.org/2000/svg">
<path d="M9.90312 81.4747L9.90271 81.4746C4.74226 80.4464 0.5 75.2622 0.5 70V15C0.5 9.77598 4.77131 5.5 10 5.5H90C95.2239 5.5 99.5 9.77614 99.5 15V70C99.5 75.262 95.2529 80.4464 90.0972 81.4747L90.0969 81.4747L68.2319 85.8497L66.7241 86.1514L68.121 86.7942L68.33 86.34C68.121 86.7942 68.121 86.7942 68.1211 86.7943L68.1216 86.7945L68.124 86.7956L68.1337 86.8001L68.1728 86.8182C68.2074 86.8343 68.2589 86.8583 68.3256 86.8897C68.4591 86.9525 68.6539 87.0448 68.8977 87.1624C69.3855 87.3977 70.0691 87.734 70.8516 88.1375C72.4204 88.9464 74.3722 90.0181 75.9402 91.0836C76.7258 91.6173 77.3984 92.1385 77.8761 92.6142C78.1147 92.8519 78.294 93.0677 78.4138 93.2579C78.5356 93.4513 78.5785 93.5905 78.5848 93.6811C78.5898 93.7538 78.5738 93.8094 78.5184 93.8734C78.451 93.951 78.3093 94.0563 78.0302 94.1582C77.4669 94.364 76.5041 94.5 75 94.5H25C23.496 94.5 22.533 94.364 21.9695 94.1582C21.6904 94.0563 21.5485 93.951 21.4811 93.8732C21.4255 93.8092 21.4095 93.7535 21.4145 93.6809C21.4206 93.5903 21.4635 93.4511 21.5852 93.2578C21.7049 93.0676 21.8839 92.8518 22.1224 92.6141C22.5998 92.1384 23.2721 91.6173 24.0573 91.0835C25.6248 90.0181 27.5759 88.9464 29.1442 88.1375C29.9265 87.734 30.6099 87.3977 31.0976 87.1624C31.3413 87.0448 31.536 86.9525 31.6695 86.8897C31.7362 86.8583 31.7877 86.8343 31.8223 86.8182L31.8614 86.8001L31.8711 86.7956L31.8734 86.7945L31.8739 86.7942C31.874 86.7942 31.8741 86.7942 31.665 86.34L31.8741 86.7942L33.2706 86.1514L31.7631 85.8497L9.90312 81.4747ZM90 70.5H90.5V70V15V14.5H90H10H9.5V15V70V70.5H10H90Z" stroke="#AEAEAE"/>
</svg>
