<svg width="100" height="100" viewBox="0 0 100 100" fill="none" xmlns="http://www.w3.org/2000/svg">
<path d="M56.25 91.6667V75M8.33334 64.5833V10.8333C8.33334 10.1703 8.59674 9.53442 9.06558 9.06558C9.53442 8.59674 10.1703 8.33334 10.8333 8.33334H89.1667C89.8297 8.33334 90.4656 8.59674 90.9345 9.06558C91.4033 9.53442 91.6667 10.1703 91.6667 10.8333V64.5833H8.33334ZM8.33334 64.5833V72.5C8.33334 73.1631 8.59674 73.7989 9.06558 74.2678C9.53442 74.7366 10.1703 75 10.8333 75H89.1667C89.8297 75 90.4656 74.7366 90.9345 74.2678C91.4033 73.7989 91.6667 73.1631 91.6667 72.5V64.5833H8.33334ZM8.33334 64.5833H91.6667H8.33334ZM37.5 91.6667H43.75H37.5ZM43.75 91.6667V75V91.6667ZM43.75 91.6667H56.25H43.75ZM56.25 91.6667H62.5H56.25Z" stroke="#AEAEAE" stroke-width="1.5" stroke-linecap="round" stroke-linejoin="round"/>
</svg>
