<svg width="100" height="100" viewBox="0 0 100 100" fill="none" xmlns="http://www.w3.org/2000/svg">
<path d="M92.9662 82.6659L92.9709 82.6822L92.9766 82.6982C93.5928 84.4153 92.3277 86.2188 90.5078 86.2188H9.5703C7.75036 86.2188 6.48528 84.4153 7.10146 82.6982L7.1072 82.6822L7.11184 82.6659L13.02 61.8553L13.039 61.7883V61.7188V16.4062C13.039 14.9539 14.2117 13.7812 15.664 13.7812H84.414C85.8664 13.7812 87.039 14.9539 87.039 16.4062V61.7188V61.7883L87.058 61.8553L92.9662 82.6659ZM19.5703 19.8125H19.0703V20.3125V58.8867V59.3867H19.5703H80.5078H81.0078V58.8867V20.3125V19.8125H80.5078H19.5703ZM41.3768 79.5806L41.2439 80.1875H41.8652H58.125H58.7463L58.6134 79.5806L57.8224 75.9673L57.7363 75.5742H57.3339H42.6562H42.2538L42.1678 75.9673L41.3768 79.5806ZM63.2519 79.7951L63.3384 80.1875H63.7402H85.332H85.9937L85.813 79.5509L81.6821 65.0002L81.5789 64.6367H81.2011H18.8769H18.4991L18.3959 65.0002L14.2651 79.5509L14.0844 80.1875H14.7461H36.2597H36.6616L36.748 79.7951L38.6133 71.3283L38.6137 71.3264C38.6423 71.194 38.7522 71.1055 38.8867 71.1055H61.1132C61.2418 71.1055 61.3584 71.1977 61.3862 71.3264L61.3867 71.3283L63.2519 79.7951Z" stroke="#AEAEAE"/>
</svg>
