<svg width="100" height="100" viewBox="0 0 100 100" fill="none" xmlns="http://www.w3.org/2000/svg">
<path d="M56.1274 46.3404L56.1287 46.3393C58.2251 44.6503 59.8591 43.3323 61.0665 41.6411C62.1889 40.0791 63 38.0867 63 35C63 27.8439 57.1561 22 50 22C42.8439 22 37 27.8439 37 35C37 35.862 36.6576 36.6886 36.0481 37.2981C35.4386 37.9076 34.612 38.25 33.75 38.25C32.888 38.25 32.0614 37.9076 31.4519 37.2981C30.8424 36.6886 30.5 35.862 30.5 35C30.5 24.2561 39.2561 15.5 50 15.5C60.7439 15.5 69.5 24.2561 69.5 35C69.5 39.413 68.2813 42.7356 66.3537 45.4236L66.3533 45.4241C64.6351 47.8267 62.3986 49.6326 60.5266 51.1443L60.5059 51.161L60.5056 51.1612L60.1657 51.4361C60.1657 51.4362 60.1656 51.4362 60.1656 51.4362C58.1108 53.097 56.4571 54.4955 55.2442 56.3124L55.244 56.3126C54.0958 58.0349 53.25 60.2876 53.25 63.75V66.25C53.25 67.112 52.9076 67.9386 52.2981 68.5481C51.6886 69.1576 50.862 69.5 50 69.5C49.138 69.5 48.3114 69.1576 47.7019 68.5481C47.0924 67.9386 46.75 67.112 46.75 66.25V63.75C46.75 59.0875 47.9341 55.56 49.8313 52.707C51.6685 49.9589 54.0756 47.9969 56.0784 46.3796C56.0786 46.3794 56.0789 46.3792 56.0791 46.379L56.1274 46.3404ZM53.182 83.182C52.3381 84.0259 51.1935 84.5 50 84.5C48.8065 84.5 47.6619 84.0259 46.818 83.182C45.9741 82.3381 45.5 81.1935 45.5 80C45.5 78.8065 45.9741 77.6619 46.818 76.818C47.6619 75.9741 48.8065 75.5 50 75.5C51.1935 75.5 52.3381 75.9741 53.182 76.818C54.0259 77.6619 54.5 78.8065 54.5 80C54.5 81.1935 54.0259 82.3381 53.182 83.182Z" stroke="#AEAEAE"/>
</svg>
