<svg width="65" height="100" viewBox="0 0 65 100" fill="none" xmlns="http://www.w3.org/2000/svg">
<path d="M9.375 41.1016H8.875V41.6016V87.5C8.875 88.9443 9.2364 90.1193 10.0468 90.9297C10.8573 91.7402 12.0323 92.1016 13.4766 92.1016H50.9766C52.4803 92.1016 53.7009 91.7431 54.5445 90.9379C55.3924 90.1284 55.7734 88.9503 55.7734 87.5V41.6016V41.1016H55.2734H9.375ZM55.2734 38H55.7734V37.5V12.5C55.7734 11.0497 55.3924 9.87156 54.5445 9.06215C53.7009 8.25689 52.4803 7.89844 50.9766 7.89844H13.4766C12.0323 7.89844 10.8573 8.25984 10.0468 9.07027C9.2364 9.88071 8.875 11.0557 8.875 12.5V37.5V38H9.375H55.2734ZM13.4766 0.5H50.9766C54.5001 0.5 57.3614 1.65857 59.6026 3.96196C61.851 6.27281 62.9766 9.10796 62.9766 12.5V87.5C62.9766 90.892 61.851 93.7272 59.6026 96.038C57.3614 98.3414 54.5001 99.5 50.9766 99.5H13.4766C10.0888 99.5 7.25518 98.3449 4.9434 96.0332C2.63161 93.7214 1.47656 90.8878 1.47656 87.5V12.5C1.47656 9.11224 2.63161 6.27862 4.9434 3.96683C7.25518 1.65505 10.0888 0.5 13.4766 0.5ZM50.4766 50C50.4766 51.0482 50.1325 51.8948 49.4511 52.5761C48.7698 53.2575 47.9232 53.6016 46.875 53.6016C45.8268 53.6016 44.9802 53.2575 44.2989 52.5761C43.6175 51.8948 43.2734 51.0482 43.2734 50C43.2734 48.9518 43.6175 48.1052 44.2989 47.4239C44.9802 46.7425 45.8268 46.3984 46.875 46.3984C47.9232 46.3984 48.7698 46.7425 49.4511 47.4239C50.1325 48.1052 50.4766 48.9518 50.4766 50ZM13.9766 17.1016H50.4766V24.5H13.9766V17.1016ZM46.375 31.25C46.375 31.8891 46.2156 32.2765 45.9843 32.5078C45.7531 32.739 45.3656 32.8984 44.7266 32.8984C44.1655 32.8984 43.8329 32.7463 43.6317 32.525C43.4222 32.2946 43.2734 31.9002 43.2734 31.25C43.2734 30.5998 43.4222 30.2054 43.6317 29.975C43.8329 29.7537 44.1655 29.6016 44.7266 29.6016C45.3656 29.6016 45.7531 29.761 45.9843 29.9922C46.2156 30.2235 46.375 30.6109 46.375 31.25ZM18.2734 83.8984H29.7734V87H18.2734V83.8984ZM34.875 83.8984H46.375V87H34.875V83.8984Z" stroke="#AEAEAE"/>
</svg>
