<svg width="100" height="100" viewBox="0 0 100 100" fill="none" xmlns="http://www.w3.org/2000/svg">
<path d="M47.2146 78.9084H14.1146C12.8659 78.9084 11.6683 78.4123 10.7853 77.5293C9.90231 76.6463 9.40625 75.4488 9.40625 74.2V29.1063H47.2146M65.1021 29.1063H90.6542V74.2C90.6542 75.4488 90.1581 76.6463 89.2751 77.5293C88.3921 78.4123 87.1946 78.9084 85.9458 78.9084H65.1042M71.7292 29.1063V22.5229L66.5479 13.5417H45.7708L40.5854 22.5209V29.1063M88.9896 29.1063V21.8292H71.7312V29.1063H88.9896Z" stroke="#AEAEAE" stroke-linecap="round" stroke-linejoin="round"/>
<path d="M41 29V24H26V28.9984" stroke="#AEAEAE" stroke-linecap="round" stroke-linejoin="round"/>
<path d="M56.1583 80.4667C70.7709 80.4667 82.6167 68.6209 82.6167 54.0083C82.6167 39.3958 70.7709 27.55 56.1583 27.55C41.5458 27.55 29.7 39.3958 29.7 54.0083C29.7 68.6209 41.5458 80.4667 56.1583 80.4667Z" stroke="#AEAEAE" stroke-linecap="round" stroke-linejoin="round"/>
<path d="M56.1583 67.7062C63.72 67.7062 69.85 61.5763 69.85 54.0146C69.85 46.4529 63.72 40.3229 56.1583 40.3229C48.5966 40.3229 42.4667 46.4529 42.4667 54.0146C42.4667 61.5763 48.5966 67.7062 56.1583 67.7062Z" stroke="#AEAEAE" stroke-linecap="round" stroke-linejoin="round"/>
<path d="M56.1583 75.2083C67.8633 75.2083 77.3521 65.7196 77.3521 54.0146C77.3521 42.3096 67.8633 32.8208 56.1583 32.8208C44.4533 32.8208 34.9646 42.3096 34.9646 54.0146C34.9646 65.7196 44.4533 75.2083 56.1583 75.2083Z" stroke="#AEAEAE" stroke-linecap="round" stroke-linejoin="round"/>
<path d="M71.7292 23.7854H40.5875" stroke="#AEAEAE" stroke-linecap="round" stroke-linejoin="round"/>
</svg>
