<?xml version="1.0" encoding="UTF-8" standalone="no"?>
<svg
   xmlns:dc="http://purl.org/dc/elements/1.1/"
   xmlns:cc="http://creativecommons.org/ns#"
   xmlns:rdf="http://www.w3.org/1999/02/22-rdf-syntax-ns#"
   xmlns:svg="http://www.w3.org/2000/svg"
   xmlns="http://www.w3.org/2000/svg"
   xmlns:sodipodi="http://sodipodi.sourceforge.net/DTD/sodipodi-0.dtd"
   xmlns:inkscape="http://www.inkscape.org/namespaces/inkscape"
   inkscape:version="1.0 (4035a4fb49, 2020-05-01)"
   sodipodi:docname="star.svg"
   id="svg39"
   version="1.1"
   fill="none"
   viewBox="0 0 160 32"
   height="32"
   width="160">
  <metadata
     id="metadata43">
    <rdf:RDF>
      <cc:Work
         rdf:about="">
        <dc:format>image/svg+xml</dc:format>
        <dc:type
           rdf:resource="http://purl.org/dc/dcmitype/StillImage" />
      </cc:Work>
    </rdf:RDF>
  </metadata>
  <sodipodi:namedview
     inkscape:current-layer="svg39"
     inkscape:window-maximized="1"
     inkscape:window-y="-8"
     inkscape:window-x="1912"
     inkscape:cy="-9.3835697"
     inkscape:cx="72.408883"
     inkscape:zoom="6.3462834"
     inkscape:guide-bbox="true"
     showguides="true"
     showgrid="false"
     id="namedview41"
     inkscape:window-height="1017"
     inkscape:window-width="1920"
     inkscape:pageshadow="2"
     inkscape:pageopacity="0"
     guidetolerance="10"
     gridtolerance="10"
     objecttolerance="10"
     borderopacity="1"
     bordercolor="#666666"
     pagecolor="#ffffff" />
  <path
     style="fill:url(#paint4_linear_122_12)"
     sodipodi:nodetypes="cccccscccccccccccccccccscccccccccccccccccssscc"
     id="path10"
     stroke="#d9dd00"
     fill="url(#paint4_linear_122_12)"
     d="m 84.963783,10.043426 0.1164,0.2358 0.2601,0.0378 7.9329,1.1529 c 2e-4,0 5e-4,0 7e-4,1e-4 0.2781,0.0417 0.4635,0.2966 0.4223,0.5634 v 0 c -0.002,0.123048 -0.10576,0.210651 -0.1459,0.2906 -2e-4,10e-5 -3e-4,3e-4 -5e-4,4e-4 l -5.7397,5.596 -0.1882,0.1835 0.0444,0.2591 1.3563,7.9031 1e-4,4e-4 c 0.0466,0.2704 -0.135,0.5284 -0.4079,0.5754 l -7e-4,2e-4 c -0.1084,0.0188 -0.2203,0.001 -0.3138,-0.0488 l -0.0022,-0.0012 -7.0969,-3.7312 -0.2327,-0.1224 -0.2327,0.1224 -7.0969,3.7312 -7e-4,4e-4 c -0.0824,0.0435 -0.1753,0.063 -0.2682,0.0564 -0.0929,-0.0066 -0.1821,-0.0391 -0.2575,-0.0939 -0.0753,-0.0547 -0.1338,-0.1295 -0.1689,-0.2158 -0.035,-0.0863 -0.0452,-0.1806 -0.0293,-0.2724 l 1e-4,-7e-4 1.3563,-7.9031 0.0444,-0.2591 -0.1882,-0.1835 -5.7406,-5.5969 v 0 c -0.262789,-0.274487 -0.124704,-0.605229 -0.0101,-0.7082 0.0776,-0.079 0.1773,-0.1297 0.2849,-0.145 l 0.0012,-2e-4 7.9344,-1.1531 0.2602,-0.0378 0.1163,-0.2358 3.5456,-7.18825 c 2e-4,-3.4e-4 4e-4,-6.7e-4 5e-4,-0.001 0.1249,-0.24844 0.4264,-0.34843 0.6716,-0.22739 l 6e-4,2.8e-4 c 0.0979,0.04815 0.1771,0.1274 0.2253,0.22525 l 2e-4,4.4e-4 z" />
  <defs
     id="defs37">
    <linearGradient
       gradientUnits="userSpaceOnUse"
       y2="27.4092"
       x2="144"
       y1="2.13428"
       x1="144"
       id="paint0_linear_122_12">
      <stop
         id="stop12"
         stop-color="#ECE41C" />
      <stop
         id="stop14"
         stop-color="#FFFA85"
         offset="1" />
    </linearGradient>
    <linearGradient
       gradientUnits="userSpaceOnUse"
       y2="27.4092"
       x2="47.9999"
       y1="2.13428"
       x1="47.9999"
       id="paint1_linear_122_12">
      <stop
         id="stop17"
         stop-color="#ECE41C" />
      <stop
         id="stop19"
         stop-color="#FFFA85"
         offset="1" />
    </linearGradient>
    <linearGradient
       gradientUnits="userSpaceOnUse"
       y2="27.4092"
       x2="15.9999"
       y1="2.13428"
       x1="15.9999"
       id="paint2_linear_122_12">
      <stop
         id="stop22"
         stop-color="#ECE41C" />
      <stop
         id="stop24"
         stop-color="#FFFA85"
         offset="1" />
    </linearGradient>
    <linearGradient
       gradientUnits="userSpaceOnUse"
       y2="27.4092"
       x2="112"
       y1="2.13428"
       x1="112"
       id="paint3_linear_122_12">
      <stop
         id="stop27"
         stop-color="#ECE41C" />
      <stop
         id="stop29"
         stop-color="#FFFA85"
         offset="1" />
    </linearGradient>
    <linearGradient
       gradientTransform="translate(0.9684831,-0.058974)"
       gradientUnits="userSpaceOnUse"
       y2="27.4092"
       x2="79.9999"
       y1="2.13428"
       x1="79.9999"
       id="paint4_linear_122_12">
      <stop
         id="stop32"
         stop-color="#ECE41C" />
      <stop
         id="stop34"
         stop-color="#FFFA85"
         offset="1" />
    </linearGradient>
    <linearGradient
       gradientTransform="translate(-29.656918,-0.05897353)"
       id="paint4_linear_122_12-4"
       x1="79.999901"
       y1="2.13428"
       x2="79.999901"
       y2="27.409201"
       gradientUnits="userSpaceOnUse">
      <stop
         stop-color="#ECE41C"
         id="stop32-6" />
      <stop
         offset="1"
         stop-color="#FFFA85"
         id="stop34-6" />
    </linearGradient>
    <linearGradient
       gradientTransform="translate(31.762565,-0.34997412)"
       id="paint4_linear_122_12-2"
       x1="79.999901"
       y1="2.13428"
       x2="79.999901"
       y2="27.409201"
       gradientUnits="userSpaceOnUse">
      <stop
         stop-color="#ECE41C"
         id="stop32-2" />
      <stop
         offset="1"
         stop-color="#FFFA85"
         id="stop34-4" />
    </linearGradient>
    <linearGradient
       gradientTransform="translate(62.39091,-0.0589741)"
       id="paint4_linear_122_12-47"
       x1="79.999901"
       y1="2.13428"
       x2="79.999901"
       y2="27.409201"
       gradientUnits="userSpaceOnUse">
      <stop
         stop-color="#ECE41C"
         id="stop32-5" />
      <stop
         offset="1"
         stop-color="#FFFA85"
         id="stop34-9" />
    </linearGradient>
    <linearGradient
       gradientTransform="translate(-60.415627,-0.0589736)"
       id="paint4_linear_122_12-6"
       x1="79.999901"
       y1="2.13428"
       x2="79.999901"
       y2="27.409201"
       gradientUnits="userSpaceOnUse">
      <stop
         stop-color="#ECE41C"
         id="stop32-8" />
      <stop
         offset="1"
         stop-color="#FFFA85"
         id="stop34-48" />
    </linearGradient>
  </defs>
  <path
     style="fill:url(#paint4_linear_122_12-4)"
     d="m 54.338382,10.043426 0.1164,0.235801 0.2601,0.0378 7.9329,1.152899 c 2e-4,0 5e-4,0 7e-4,1e-4 0.2781,0.0417 0.4635,0.2966 0.4223,0.5634 v 0 c -0.002,0.123049 -0.10576,0.210652 -0.1459,0.290601 -2e-4,1e-4 -3e-4,3e-4 -5e-4,4e-4 l -5.7397,5.596 -0.1882,0.1835 0.0444,0.2591 1.3563,7.9031 10e-5,4e-4 c 0.0466,0.2704 -0.135,0.5284 -0.4079,0.5754 l -7e-4,2e-4 c -0.1084,0.0188 -0.2203,10e-4 -0.3138,-0.0488 l -0.0022,-0.0012 -7.0969,-3.7312 -0.2327,-0.1224 -0.2327,0.1224 -7.0969,3.7312 -7e-4,4e-4 c -0.0824,0.0435 -0.1753,0.063 -0.2682,0.0564 -0.0929,-0.0066 -0.1821,-0.0391 -0.2575,-0.0939 -0.0753,-0.0547 -0.1338,-0.1295 -0.1689,-0.2158 -0.035,-0.0863 -0.0452,-0.1806 -0.0293,-0.2724 l 10e-5,-7e-4 1.3563,-7.9031 0.0444,-0.2591 -0.1882,-0.1835 -5.7406,-5.5969 v 0 c -0.262789,-0.274488 -0.124704,-0.60523 -0.0101,-0.708201 0.0776,-0.079 0.1773,-0.1297 0.2849,-0.145 l 0.0012,-2e-4 7.9344,-1.153099 0.2602,-0.0378 0.1163,-0.235801 3.5456,-7.1882495 c 2e-4,-3.4e-4 4e-4,-6.7e-4 5e-4,-10e-4 0.1249,-0.24844 0.4264,-0.34843 0.6716,-0.22739 l 6e-4,2.8e-4 c 0.0979,0.04815 0.1771,0.1274 0.2253,0.22525 l 2e-4,4.4e-4 z"
     fill="url(#paint4_linear_122_12)"
     stroke="#d9dd00"
     id="path10-0"
     sodipodi:nodetypes="cccccscccccccccccccccccscccccccccccccccccssscc" />
  <path
     style="fill:url(#paint4_linear_122_12-2)"
     d="m 115.75786,9.752426 0.1164,0.2358 0.2601,0.0378 7.9329,1.1529 c 2e-4,0 5e-4,0 7e-4,10e-5 0.2781,0.0417 0.4635,0.2966 0.4223,0.5634 v 0 c -0.002,0.123048 -0.10576,0.210651 -0.1459,0.2906 -2e-4,10e-5 -3e-4,3e-4 -5e-4,4e-4 l -5.7397,5.596 -0.1882,0.1835 0.0444,0.2591 1.3563,7.9031 1e-4,4e-4 c 0.0466,0.2704 -0.135,0.5284 -0.4079,0.5754 l -7e-4,2e-4 c -0.1084,0.0188 -0.2203,0.001 -0.3138,-0.0488 l -0.002,-0.0012 -7.0969,-3.7312 -0.2327,-0.1224 -0.2327,0.1224 -7.0969,3.7312 -7e-4,4e-4 c -0.0824,0.0435 -0.1753,0.063 -0.2682,0.0564 -0.0929,-0.0066 -0.1821,-0.0391 -0.2575,-0.0939 -0.0753,-0.0547 -0.1338,-0.1295 -0.1689,-0.2158 -0.035,-0.0863 -0.0452,-0.1806 -0.0293,-0.2724 l 10e-5,-7e-4 1.3563,-7.9031 0.0444,-0.2591 -0.1882,-0.1835 -5.7406,-5.5969 v 0 c -0.26278,-0.274487 -0.1247,-0.605229 -0.0101,-0.7082 0.0776,-0.079 0.1773,-0.1297 0.2849,-0.145 l 0.001,-2e-4 7.9344,-1.1531 0.2602,-0.0378 0.1163,-0.2358 3.5456,-7.1882501 c 2e-4,-3.4e-4 4e-4,-6.7e-4 5e-4,-10e-4 0.1249,-0.24844 0.4264,-0.34843 0.6716,-0.22739 l 6e-4,2.8e-4 c 0.0979,0.04815 0.1771,0.1274 0.2253,0.22525 l 2e-4,4.4e-4 z"
     fill="url(#paint4_linear_122_12)"
     stroke="#d9dd00"
     id="path10-2"
     sodipodi:nodetypes="cccccscccccccccccccccccscccccccccccccccccssscc" />
  <path
     style="fill:url(#paint4_linear_122_12-47)"
     d="m 146.38621,10.043426 0.1164,0.2358 0.2601,0.0378 7.9329,1.1529 c 2e-4,0 5e-4,0 7e-4,1e-4 0.2781,0.0417 0.4635,0.2966 0.4223,0.5634 v 0 c -0.002,0.123048 -0.10576,0.210651 -0.1459,0.2906 -2e-4,10e-5 -3e-4,3e-4 -5e-4,4e-4 l -5.7397,5.596 -0.1882,0.1835 0.0444,0.2591 1.3563,7.9031 1e-4,4e-4 c 0.0466,0.2704 -0.135,0.5284 -0.4079,0.5754 l -7e-4,2e-4 c -0.1084,0.0188 -0.2203,0.001 -0.3138,-0.0488 l -0.002,-0.0012 -7.0969,-3.7312 -0.2327,-0.1224 -0.2327,0.1224 -7.0969,3.7312 -7e-4,4e-4 c -0.0824,0.0435 -0.1753,0.063 -0.2682,0.0564 -0.0929,-0.0066 -0.1821,-0.0391 -0.2575,-0.0939 -0.0753,-0.0547 -0.1338,-0.1295 -0.1689,-0.2158 -0.035,-0.0863 -0.0452,-0.1806 -0.0293,-0.2724 l 1e-4,-7e-4 1.3563,-7.9031 0.0444,-0.2591 -0.1882,-0.1835 -5.7406,-5.5969 v 0 c -0.26279,-0.274487 -0.1247,-0.605229 -0.0101,-0.7082 0.0776,-0.079 0.1773,-0.1297 0.2849,-0.145 l 0.001,-2e-4 7.9344,-1.1531 0.2602,-0.0378 0.1163,-0.2358 3.5456,-7.1882501 c 2e-4,-3.4e-4 4e-4,-6.7e-4 5e-4,-10e-4 0.1249,-0.24844 0.4264,-0.34843 0.6716,-0.22739 l 6e-4,2.8e-4 c 0.0979,0.04815 0.1771,0.1274 0.2253,0.22525 l 2e-4,4.4e-4 z"
     fill="url(#paint4_linear_122_12)"
     stroke="#d9dd00"
     id="path10-9"
     sodipodi:nodetypes="cccccscccccccccccccccccscccccccccccccccccssscc" />
  <path
     style="fill:url(#paint4_linear_122_12-6)"
     d="m 23.579673,10.043426 0.1164,0.2358 0.2601,0.0378 7.9329,1.1529 c 2e-4,0 5e-4,0 7e-4,1e-4 0.2781,0.0417 0.4635,0.2966 0.4223,0.5634 v 0 c -0.002,0.123048 -0.10576,0.210651 -0.1459,0.2906 -2e-4,10e-5 -3e-4,3e-4 -5e-4,4e-4 l -5.7397,5.596 -0.1882,0.1835 0.0444,0.2591 1.3563,7.9031 10e-5,4e-4 c 0.0466,0.2704 -0.135,0.5284 -0.4079,0.5754 l -7e-4,2e-4 c -0.1084,0.0188 -0.2203,0.001 -0.3138,-0.0488 l -0.0022,-0.0012 -7.0969,-3.7312 -0.2327,-0.1224 -0.2327,0.1224 -7.096901,3.7312 -7e-4,4e-4 c -0.0824,0.0435 -0.1753,0.063 -0.2682,0.0564 -0.0929,-0.0066 -0.1821,-0.0391 -0.2575,-0.0939 -0.0753,-0.0547 -0.1338,-0.1295 -0.1689,-0.2158 -0.035,-0.0863 -0.0452,-0.1806 -0.0293,-0.2724 l 10e-5,-7e-4 1.3563,-7.9031 0.0444,-0.2591 -0.1882,-0.1835 -5.7405995,-5.5969 v 0 c -0.262789,-0.274487 -0.124704,-0.605229 -0.0101,-0.7082 0.0776,-0.079 0.1773,-0.1297 0.2849,-0.145 l 0.0012,-2e-4 7.9344005,-1.1531 0.2602,-0.0378 0.1163,-0.2358 3.5456,-7.1882499 c 2e-4,-3.4e-4 4e-4,-6.7e-4 5e-4,-10e-4 0.1249,-0.24844 0.4264,-0.34843 0.6716,-0.22739 l 6e-4,2.8e-4 c 0.0979,0.04815 0.1771,0.1274 0.2253,0.22525 l 2e-4,4.4e-4 z"
     fill="url(#paint4_linear_122_12)"
     stroke="#d9dd00"
     id="path10-93"
     sodipodi:nodetypes="cccccscccccccccccccccccscccccccccccccccccssscc" />
</svg>
