<svg width="85" height="100" viewBox="0 0 85 100" fill="none" xmlns="http://www.w3.org/2000/svg">
<path d="M44.8611 89.3889H45.3611V88.8889V83.3333V82.8333H44.8611H40.1389H39.6389V83.3333V88.8889V89.3889H40.1389H44.8611ZM13.6667 77.7778V78.2778H14.1667H70.8333H71.3333V77.7778V11.1111V10.6111H70.8333H14.1667H13.6667V11.1111V77.7778ZM14.1667 6.05554H70.8333C71.9245 6.05554 72.991 6.56484 73.7915 7.50655C74.594 8.45073 75.0556 9.74639 75.0556 11.1111V88.8889C75.0556 90.2536 74.594 91.5492 73.7915 92.4934C72.991 93.4351 71.9245 93.9444 70.8333 93.9444H14.1667C13.0755 93.9444 12.009 93.4351 11.2085 92.4934C10.406 91.5492 9.94446 90.2536 9.94446 88.8889V11.1111C9.94446 9.74639 10.406 8.45073 11.2085 7.50655C12.009 6.56484 13.0755 6.05554 14.1667 6.05554Z" stroke="#AEAEAE"/>
</svg>
