<svg width="100" height="100" viewBox="0 0 100 100" fill="none" xmlns="http://www.w3.org/2000/svg">
<g clip-path="url(#clip0_75_66)">
<path d="M45.5 75V74.5H45H7.5C5.64348 74.5 3.86301 73.7625 2.55025 72.4497C1.2375 71.137 0.5 69.3565 0.5 67.5V17.5C0.5 15.6435 1.2375 13.863 2.55025 12.5503C3.86301 11.2375 5.64348 10.5 7.5 10.5H92H92.5C94.3565 10.5 96.137 11.2375 97.4497 12.5503C98.7625 13.863 99.5 15.6435 99.5 17.5V67.5C99.5 69.3565 98.7625 71.137 97.4497 72.4497C96.137 73.7625 94.3565 74.5 92.5 74.5H55H54.5V75V80V80.5H55H82.5C83.0304 80.5 83.5391 80.7107 83.9142 81.0858C84.2893 81.4609 84.5 81.9696 84.5 82.5V87.5C84.5 88.0304 84.2893 88.5391 83.9142 88.9142C83.5391 89.2893 83.0304 89.5 82.5 89.5H17.5C16.9696 89.5 16.4609 89.2893 16.0858 88.9142C15.7107 88.5391 15.5 88.0304 15.5 87.5V82.5C15.5 81.9696 15.7107 81.4609 16.0858 81.0858C16.4609 80.7107 16.9696 80.5 17.5 80.5H45H45.5V80V75ZM90 65.5H90.5V65V20V19.5H90H10H9.5V20V65V65.5H10H90Z" stroke="#AEAEAE"/>
</g>
<defs>
<clipPath id="clip0_75_66">
<rect width="100" height="100" fill="white"/>
</clipPath>
</defs>
</svg>
