<svg width="100" height="100" viewBox="0 0 100 100" fill="none" xmlns="http://www.w3.org/2000/svg">
<path d="M30.0417 21.3333H30.4655L30.5349 20.9152L33.9238 0.5H66.4095L69.7984 20.9152L69.8678 21.3333H70.2917H71C73.0775 21.3333 75.07 22.1586 76.539 23.6277C78.008 25.0967 78.8333 27.0891 78.8333 29.1667V70.8333C78.8333 72.9109 78.008 74.9033 76.539 76.3723C75.07 77.8414 73.0775 78.6667 71 78.6667H70.2917H69.8678L69.7984 79.0848L66.4095 99.5H33.9238L30.5349 79.0848L30.4655 78.6667H30.0417H29.3333C27.2558 78.6667 25.2634 77.8414 23.7943 76.3723C22.3253 74.9033 21.5 72.9109 21.5 70.8333V29.1667C21.5 27.0891 22.3253 25.0967 23.7943 23.6277C25.2634 22.1586 27.2558 21.3333 29.3333 21.3333H30.0417ZM29.3333 28.6667H28.8333V29.1667V70.8333V71.3333H29.3333H71H71.5V70.8333V29.1667V28.6667H71H29.3333Z" stroke="#AEAEAE"/>
</svg>
